<svg width="102" height="102" viewBox="0 0 102 102" fill="none" xmlns="http://www.w3.org/2000/svg">
<path d="M51.85 55.25L48.025 59.075C47.2458 59.8542 46.8562 60.8458 46.8562 62.05C46.8562 63.2542 47.2458 64.2458 48.025 65.025C48.8042 65.8042 49.7958 66.1937 51 66.1937C52.2042 66.1937 53.1958 65.8042 53.975 65.025L65.025 53.975C65.875 53.125 66.3 52.1333 66.3 51C66.3 49.8667 65.875 48.875 65.025 48.025L53.975 36.975C53.1958 36.1958 52.2042 35.8063 51 35.8063C49.7958 35.8063 48.8042 36.1958 48.025 36.975C47.2458 37.7542 46.8562 38.7458 46.8562 39.95C46.8562 41.1542 47.2458 42.1458 48.025 42.925L51.85 46.75H38.25C37.0458 46.75 36.0357 47.158 35.2197 47.974C34.4037 48.79 33.9972 49.7987 34 51C34 52.2042 34.408 53.2143 35.224 54.0303C36.04 54.8463 37.0487 55.2528 38.25 55.25H51.85ZM51 93.5C45.1208 93.5 39.5958 92.3837 34.425 90.151C29.2542 87.9183 24.7563 84.8909 20.9313 81.0688C17.1063 77.2438 14.0788 72.7458 11.849 67.575C9.61917 62.4042 8.50283 56.8792 8.5 51C8.5 45.1208 9.61633 39.5958 11.849 34.425C14.0817 29.2542 17.1091 24.7563 20.9313 20.9313C24.7563 17.1063 29.2542 14.0788 34.425 11.849C39.5958 9.61917 45.1208 8.50283 51 8.5C56.8792 8.5 62.4042 9.61633 67.575 11.849C72.7458 14.0817 77.2438 17.1091 81.0688 20.9313C84.8938 24.7563 87.9226 29.2542 90.1552 34.425C92.3879 39.5958 93.5028 45.1208 93.5 51C93.5 56.8792 92.3837 62.4042 90.151 67.575C87.9183 72.7458 84.8909 77.2438 81.0688 81.0688C77.2438 84.8938 72.7458 87.9226 67.575 90.1552C62.4042 92.3879 56.8792 93.5028 51 93.5ZM51 85C60.4917 85 68.5312 81.7062 75.1187 75.1187C81.7062 68.5312 85 60.4917 85 51C85 41.5083 81.7062 33.4687 75.1187 26.8812C68.5312 20.2937 60.4917 17 51 17C41.5083 17 33.4687 20.2937 26.8812 26.8812C20.2937 33.4687 17 41.5083 17 51C17 60.4917 20.2937 68.5312 26.8812 75.1187C33.4687 81.7062 41.5083 85 51 85Z" fill="#373A45"/>
</svg>
